<svg height="32" stroke-miterlimit="10" style="fill-rule:nonzero;clip-rule:evenodd;stroke-linecap:round;stroke-linejoin:round;" viewBox="0 0 2048 2048" width="32" xmlns="http://www.w3.org/2000/svg"><g><rect x="0" y="0" width="2048" height="2048" fill="#F08A0C"/><path d="M2.27e-13 1024C2.27e-13 458.46 458.46 0 1024 0C1589.54 0 2048 458.46 2048 1024C2048 1589.54 1589.54 2048 1024 2048C458.46 2048 2.27e-13 1589.54 2.27e-13 1024Z" fill="#F08A0C" fill-rule="nonzero" opacity="1" stroke="none"/><g fill="#ffffff" opacity="1" stroke="#ffffff" stroke-linecap="butt" stroke-linejoin="round" stroke-width="56.24"><path d="M443.03 734.06L499.64 734.06C515.30 734.06 528.35 729.81 538.79 721.31C549.83 712.21 555.35 698.26 555.35 679.46C555.35 647.99 530.36 632.25 480.39 632.25L443.03 632.25L443.03 734.06ZM389.55 926.26L389.55 587.28L503.44 587.28C555.80 587.28 588.91 606.00 602.78 643.44C606.81 654.33 608.83 665.59 608.83 677.23C608.83 688.86 607.52 699.45 604.91 709.00C602.30 718.55 598.46 727.42 593.39 735.63C582.20 753.53 565.72 764.79 543.94 769.41L606.59 926.26L551.77 926.26L493.15 779.26L443.03 779.26L443.03 926.26L389.55 926.26Z"/><path d="M746.82 791.14L806.57 791.14L776.80 687.90L746.82 791.14ZM656.04 926.26L747.25 606.40L802.56 606.40L893.77 926.26L845.00 926.26L818.61 833.58L734.79 833.58L708.40 926.26L656.04 926.26Z"/><path d="M1013.39 883.83L1043.79 883.83C1073.21 883.83 1095.87 873.20 1111.77 851.94C1127.4 830.83 1135.21 803.03 1135.21 768.55C1135.21 702.82 1114.17 664.11 1072.08 652.43C1063.5 650.04 1054.07 648.84 1043.79 648.84L1013.39 648.84L1013.39 883.83ZM962.92 926.26L962.92 606.40L1038.3 606.40C1115.43 606.40 1162.02 637.44 1178.07 699.51C1183.13 719.36 1185.67 740.26 1185.67 762.22C1185.67 784.17 1184.15 802.68 1181.13 817.74C1178.1 832.80 1172.93 847.09 1165.61 860.60C1158.29 874.11 1149.14 885.65 1138.16 895.23C1114.1 915.92 1080.81 926.26 1038.3 926.26L962.92 926.26Z" stroke-width="46.76"/><path d="M1260.1 926.26L1260.1 606.40L1310.56 606.40L1310.56 926.26L1260.1 926.26Z" stroke-width="43.84"/><path d="M1441.79 721.68C1440.38 729.98 1439.39 737.8 1438.83 745.11C1438.27 752.43 1437.99 759.93 1437.99 767.60C1437.99 775.27 1438.27 782.84 1438.83 790.3C1439.39 797.76 1440.41 805.64 1441.89 813.94C1443.37 822.25 1445.24 829.92 1447.49 836.95C1449.74 843.99 1452.8 850.78 1456.67 857.33C1460.54 863.87 1464.87 869.47 1469.66 874.11C1480.49 884.25 1494.15 889.31 1510.61 889.31C1556.36 889.31 1579.23 848.64 1579.23 767.28C1579.23 700.99 1563.75 661.02 1532.78 647.36C1526.03 644.41 1518.53 642.93 1510.3 642.93C1502.06 642.93 1494.46 644.41 1487.5 647.36C1480.53 650.32 1474.62 654.22 1469.76 659.08C1464.91 663.94 1460.54 669.81 1456.67 676.71C1452.8 683.61 1449.74 690.71 1447.49 698.03C1445.24 705.35 1443.34 713.23 1441.79 721.68ZM1389.64 799.37C1388.23 788.68 1387.53 778.05 1387.53 767.49C1387.53 756.94 1388.16 746.31 1389.43 735.61C1390.69 724.92 1392.81 714.04 1395.76 702.99C1398.72 691.95 1402.38 681.49 1406.74 671.64C1411.1 661.79 1416.63 652.46 1423.31 643.67C1430 634.87 1437.49 627.31 1445.8 620.97C1463.67 607.32 1485.42 600.49 1511.04 600.49C1546.22 600.49 1574.38 614.99 1595.49 643.98C1618.29 675.51 1629.69 716.68 1629.69 767.49C1629.69 819.29 1618.71 860.11 1596.75 889.95C1576.2 917.82 1547.63 931.75 1511.04 931.75C1476.27 931.75 1447.77 917.75 1425.53 889.74C1406.67 866.09 1394.71 835.97 1389.64 799.37Z" stroke-width="36.73"/><path d="M407.98 1409.98L407.98 1090.12L439.22 1090.12L439.22 1409.98L407.98 1409.98Z" stroke-width="36.73"/><path d="M537.52 1409.98L537.52 1090.12L587.34 1090.12L716.34 1333.76L716.34 1090.12L747.59 1090.12L747.59 1409.98L720.77 1409.98L568.76 1121.16L568.76 1409.98L537.52 1409.98Z" stroke-width="43.84"/><path d="M845.88 1409.98L845.88 1090.12L922.09 1090.12C992.75 1090.12 1035.97 1121.51 1051.73 1184.28C1056.8 1204.55 1059.33 1225.24 1059.33 1246.36C1059.33 1267.47 1057.85 1285.49 1054.9 1300.4C1051.94 1315.32 1047.05 1329.58 1040.22 1343.16C1033.4 1356.74 1024.85 1368.39 1014.57 1378.1C991.91 1399.35 961.08 1409.98 922.09 1409.98L845.88 1409.98ZM877.12 1383.8L922.09 1383.8C968.12 1383.8 999.37 1364.17 1015.84 1324.9C1024 1305.19 1028.08 1281.12 1028.08 1252.69C1028.08 1202.16 1018.37 1166.13 998.94 1144.59C991.34 1136.29 981.03 1129.5 968.01 1124.22C954.99 1118.94 939.69 1116.3 922.09 1116.3L877.12 1116.3L877.12 1383.8Z" stroke-width="46.76"/><path d="M1144.95 1409.98L1144.95 1090.12L1318.29 1090.12L1318.29 1116.3L1176.2 1116.3L1176.2 1228.83L1278.18 1228.83L1278.18 1255.01L1176.2 1255.01L1176.2 1381.9L1326.31 1381.9L1326.31 1409.98L1144.95 1409.98Z"/><path d="M1389.03 1409.98L1486.81 1237.02L1393.05 1071L1427.51 1071L1507.84 1212.85L1585.7 1071L1620.16 1071L1524.4 1242.17L1619.49 1409.98L1584.59 1409.98L1504.26 1267.67L1423.93 1409.98L1389.03 1409.98Z"/></g></g></svg>